<svg id="Capa_1" enable-background="new 0 0 512 512" height="512" viewBox="0 0 512 512" width="512" xmlns="http://www.w3.org/2000/svg"><g><path d="m455 200c0 79.53-57.26 164.67-110.9 227.13 0 0-24.1-3.13-88.1-3.13-63.18 0-87.44 3.01-88.05 3.09-9.76-11.38-19.18-22.89-27.74-34.09-41.37-54.15-83.21-124.9-83.21-193 0-110.28 89.27-200 199-200s199 89.72 199 200z" fill="#ff6378"/><path d="m455 200c0 79.53-57.26 164.67-110.9 227.13 0 0-24.1-3.13-88.1-3.13v-424c109.73 0 199 89.72 199 200z" fill="#ea1c81"/><path d="m303 120v56c0 8.28-6.72 15-15 15s-15-6.72-15-15v-56c0-9.37-7.63-17-17-17s-17 7.63-17 17v56c0 8.28-6.72 15-15 15s-15-6.72-15-15v-56c0-25.92 21.08-47 47-47s47 21.08 47 47z" fill="#f1f1fa"/><path d="m256 103v-30c25.92 0 47 21.08 47 47v56c0 8.28-6.72 15-15 15s-15-6.72-15-15v-56c0-9.37-7.63-17-17-17z" fill="#d6d6fa"/><path d="m344.1 427.13c-24.239 28.296-56.817 61.768-78.05 81.01-5.723 5.143-14.368 5.151-20.1 0-19.589-17.656-52.731-51.54-78.01-81.051l9.91-9.909c33.03-32.761 80.931-40.131 120.44-23.87 22.645 9.321 33.891 21.901 45.81 33.82z" fill="#0d8ebc"/><path d="m344.1 427.13c-24.239 28.296-56.817 61.768-78.05 81.01-2.86 2.57-6.45 3.86-10.05 3.86v-127.012c14.74 0 29.05 2.872 42.29 8.322 22.645 9.321 33.891 21.901 45.81 33.82z" fill="#0a617d"/><path d="m359 152v104c0 30.33-24.67 55-55 55h-96c-30.33 0-55-24.67-55-55v-104c0-8.28 6.72-15 15-15h176c8.28 0 15 6.72 15 15z" fill="#ffe278"/><path d="m359 152v104c0 30.33-24.67 55-55 55h-48v-174h88c8.28 0 15 6.72 15 15z" fill="#ecb455"/></g></svg>